<?xml version="1.0" encoding="utf-8"?>
<!-- Generator: Adobe Illustrator 22.0.1, SVG Export Plug-In . SVG Version: 6.00 Build 0)  -->
<svg version="1.1" id="Layer_1" xmlns="http://www.w3.org/2000/svg" xmlns:xlink="http://www.w3.org/1999/xlink" x="0px" y="0px"
	 viewBox="0 0 551.4 193.6" style="enable-background:new 0 0 551.4 193.6;" xml:space="preserve">
<style type="text/css">
	.st0{fill:#FFFFFF;}
	.st1{fill:none;stroke:#ED2124;stroke-width:5;stroke-linecap:round;stroke-miterlimit:10;}
	.st2{fill:#ED2124;}
</style>
<g>
	<path class="st0" d="M29.4,78.7l-4.7,58.7l-18.2,0.9V79.9L29.4,78.7z"/>
	<path class="st0" d="M85.8,117.5c0,3.2,0,6.5-0.1,9.6c-0.1,3.2-0.2,6.4-0.3,9.6l-24.8-0.4c0.9-5.1,1.6-10.2,2.2-15.2
		c0.6-5.1,0.9-10.2,0.9-15.4c0-0.4,0-1,0-1.8c0-0.8-0.1-1.8-0.2-2.8c-0.1-1-0.2-2.1-0.4-3.2c-0.2-1.1-0.4-2.1-0.6-3
		c-0.3-0.9-0.6-1.7-1-2.3c-0.4-0.6-0.9-0.9-1.4-0.9c-1,0-1.8,0.3-2.5,0.9c-0.7,0.6-1.2,1.3-1.7,2.2c-0.4,0.9-0.8,1.9-1.1,3
		c-0.3,1.1-0.5,2.2-0.6,3.4c-0.1,1.1-0.2,2.2-0.3,3.2c0,1-0.1,1.8-0.1,2.4c-0.1,5.1-0.3,10.1-0.3,15.1c-0.1,5-0.2,10.1-0.3,15.2
		l-22,0.9c0.6-10.1,1.1-20.2,1.7-30.2c0.5-10,1-20.1,1.3-30.2l20.3-1l-0.2,6.9c0.8-1,1.7-1.9,2.6-2.8c0.9-0.9,1.9-1.6,3-2.2
		c1.1-0.6,2.2-1.1,3.4-1.5c1.2-0.4,2.4-0.5,3.8-0.5c2.4,0,4.6,0.4,6.4,1.2c1.8,0.8,3.4,1.9,4.7,3.3c1.3,1.4,2.4,3,3.3,4.9
		c0.9,1.9,1.6,3.9,2.2,6c0.5,2.1,1,4.3,1.2,6.7c0.3,2.3,0.5,4.6,0.6,6.8c0.1,2.2,0.2,4.4,0.2,6.5C85.8,113.9,85.8,115.8,85.8,117.5z
		"/>
	<path class="st0" d="M142.8,83.7l-19,22.7l17.5,29.6l-20,3.5l-13.1-17.7l-0.7,16.9l-17.9,0.7l1.4-61.7l20.1,1.1l-1.6,17.7l12.5-18
		L142.8,83.7z"/>
	<path class="st0" d="M192.2,106.3c0,2.6-0.3,5.1-0.9,7.6s-1.5,4.7-2.6,6.8c-1.1,2.1-2.5,4.1-4.1,5.8c-1.6,1.8-3.4,3.3-5.5,4.5
		c-2,1.3-4.2,2.2-6.6,3c-2.4,0.7-4.9,1.1-7.6,1.1c-2.6,0-5-0.3-7.4-1c-2.3-0.7-4.5-1.6-6.6-2.8s-3.9-2.6-5.5-4.3
		c-1.7-1.7-3.1-3.5-4.2-5.6c-1.2-2.1-2.1-4.3-2.7-6.6c-0.6-2.4-1-4.8-1-7.4c0-2.5,0.3-4.9,0.9-7.3c0.6-2.4,1.5-4.7,2.6-6.8
		c1.1-2.1,2.5-4.1,4.1-5.9c1.6-1.8,3.4-3.3,5.4-4.6c2-1.3,4.2-2.3,6.5-3c2.3-0.7,4.8-1.1,7.4-1.1c4.2,0,8,0.6,11.4,1.9
		c3.4,1.3,6.4,3.1,8.8,5.5c2.4,2.4,4.3,5.3,5.6,8.7C191.6,98.4,192.2,102.2,192.2,106.3z M173.1,107.5c0-1.2-0.2-2.4-0.5-3.6
		c-0.4-1.2-0.9-2.2-1.6-3.1c-0.7-0.9-1.5-1.6-2.6-2.2c-1-0.6-2.2-0.8-3.5-0.8c-1.4,0-2.6,0.2-3.6,0.7c-1.1,0.5-2,1.2-2.7,2
		c-0.8,0.8-1.3,1.8-1.7,3c-0.4,1.1-0.6,2.3-0.6,3.6c0,1.2,0.2,2.4,0.5,3.6c0.3,1.2,0.9,2.3,1.6,3.3c0.7,1,1.5,1.8,2.6,2.4
		c1,0.6,2.2,0.9,3.6,0.9c1.3,0,2.6-0.3,3.6-0.8c1.1-0.5,2-1.2,2.7-2.2c0.7-0.9,1.3-1.9,1.7-3.1C172.9,110,173.1,108.7,173.1,107.5z"
		/>
	<path class="st0" d="M245.9,137.6l-21.5,1l-0.2-18.2h-9.9l-0.6,18.9h-19.3l1.6-60.6l20.5,0.9l-1.3,30.9h9.6l0.1-32.4l19.6,0.5
		L245.9,137.6z"/>
	<path class="st0" d="M332.6,104.5c0,2.5-0.2,5-0.5,7.5c-4.9,0.3-9.8,0.8-14.6,1.5c-4.9,0.7-9.7,1.4-14.6,2.1c0.7,2.1,1.9,3.7,3.5,5
		s3.5,1.9,5.7,1.9c1.1,0,2.4-0.2,3.8-0.6s2.7-1,4.1-1.6c1.3-0.6,2.6-1.3,3.9-2.1s2.3-1.4,3.2-2l-2.1,19.6c-1.1,0.9-2.3,1.6-3.6,2.2
		c-1.3,0.6-2.7,1.1-4.1,1.5c-1.4,0.4-2.8,0.6-4.3,0.8c-1.4,0.2-2.8,0.3-4.2,0.3c-2.8,0-5.4-0.4-7.8-1.2c-2.4-0.8-4.5-1.9-6.4-3.3
		c-1.9-1.4-3.6-3-5-4.9c-1.4-1.9-2.6-4-3.6-6.2c-0.9-2.2-1.7-4.6-2.2-7.1c-0.5-2.5-0.7-5-0.7-7.6c0-2.7,0.2-5.3,0.7-8
		c0.5-2.7,1.2-5.2,2.2-7.7c1-2.5,2.2-4.8,3.7-6.9c1.5-2.1,3.3-4,5.3-5.5c2-1.6,4.3-2.8,6.8-3.7c2.5-0.9,5.3-1.3,8.4-1.3
		c2.6,0,4.9,0.4,7,1.1c2.1,0.7,4,1.7,5.6,2.9s3.1,2.7,4.3,4.5c1.2,1.7,2.2,3.6,3,5.7c0.8,2.1,1.4,4.2,1.8,6.5
		S332.6,102.2,332.6,104.5z M315.3,102.3c0-0.8-0.1-1.6-0.3-2.5c-0.2-0.8-0.5-1.6-0.8-2.3c-0.4-0.7-0.9-1.3-1.5-1.7
		c-0.6-0.4-1.4-0.7-2.4-0.7c-1.1,0-2.2,0.3-3,0.9c-0.9,0.6-1.6,1.4-2.3,2.3c-0.6,0.9-1.1,1.9-1.6,3c-0.4,1.1-0.7,2.1-0.9,3l12.8-1.2
		V102.3z"/>
	<path class="st0" d="M385.8,97.8c0,2.2-0.2,4.3-0.6,6.1c-0.4,1.8-1,3.5-1.8,5c-0.8,1.5-1.9,2.9-3.2,4.2c-1.3,1.3-2.9,2.5-4.8,3.7
		l10.3,18.3l-19.4,3.8l-6.6-18.3l-5.3,0.2l-0.8,17.9H335c0.1-6.5,0.3-13.1,0.4-19.6c0.1-6.5,0.3-13,0.5-19.6
		c0.1-3.3,0.1-6.6,0.2-9.8c0.1-3.2,0.2-6.5,0.3-9.8c2-0.7,4-1.4,5.9-1.9c2-0.5,3.9-0.9,5.9-1.1c2-0.3,4-0.5,6-0.6
		c2-0.1,4.1-0.2,6.2-0.2c3.3,0,6.4,0.5,9.5,1.4c3.1,0.9,5.8,2.3,8.1,4.1s4.2,4.1,5.7,6.8C385.1,91.1,385.8,94.2,385.8,97.8z
		 M366.5,99.2c0-1.2-0.2-2.3-0.5-3.3c-0.3-1-0.8-1.9-1.5-2.6s-1.5-1.3-2.4-1.7c-1-0.4-2.1-0.6-3.4-0.6c-0.6,0-1.1,0-1.7,0.1
		c-0.5,0.1-1.1,0.2-1.6,0.3l-0.7,16h1c1.2,0,2.5-0.2,3.8-0.5c1.3-0.3,2.4-0.8,3.4-1.5s1.9-1.5,2.5-2.5
		C366.2,101.9,366.5,100.6,366.5,99.2z"/>
	<path class="st0" d="M443.1,135.6l-21.4,2.8l-2.6-9.7h-9.8l-2.2,9.7l-22-2.2l17.1-57.4l23.9-1.2L443.1,135.6z M417.6,115.5l-3.3-15
		l-3.2,15H417.6z"/>
	<path class="st0" d="M497.5,117.5c0,3.2,0,6.5-0.1,9.6c-0.1,3.2-0.2,6.4-0.3,9.6l-24.8-0.4c0.9-5.1,1.6-10.2,2.2-15.2
		s0.9-10.2,0.9-15.4c0-0.4,0-1,0-1.8s-0.1-1.8-0.2-2.8c-0.1-1-0.2-2.1-0.4-3.2c-0.2-1.1-0.4-2.1-0.6-3c-0.3-0.9-0.6-1.7-1-2.3
		c-0.4-0.6-0.9-0.9-1.4-0.9c-1,0-1.8,0.3-2.5,0.9c-0.7,0.6-1.2,1.3-1.7,2.2c-0.4,0.9-0.8,1.9-1.1,3c-0.3,1.1-0.5,2.2-0.6,3.4
		s-0.2,2.2-0.3,3.2c0,1-0.1,1.8-0.1,2.4c-0.1,5.1-0.3,10.1-0.3,15.1c-0.1,5-0.2,10.1-0.3,15.2l-22,0.9c0.6-10.1,1.1-20.2,1.7-30.2
		c0.5-10,1-20.1,1.3-30.2l20.3-1l-0.2,6.9c0.8-1,1.7-1.9,2.6-2.8c0.9-0.9,1.9-1.6,3-2.2c1.1-0.6,2.2-1.1,3.4-1.5
		c1.2-0.4,2.4-0.5,3.8-0.5c2.4,0,4.6,0.4,6.4,1.2c1.8,0.8,3.4,1.9,4.7,3.3s2.4,3,3.3,4.9c0.9,1.9,1.6,3.9,2.2,6
		c0.5,2.1,1,4.3,1.2,6.7c0.3,2.3,0.5,4.6,0.6,6.8c0.1,2.2,0.2,4.4,0.2,6.5C497.5,113.9,497.5,115.8,497.5,117.5z"/>
	<path class="st0" d="M547.2,78.6l-0.4,18.3l-12.8,0.5l-1.6,40l-18.2,0.9l-1.6-40L499.7,99l0.5-20.3L547.2,78.6z"/>
</g>
<path class="st1" d="M271.8,143.8c0,0,16.4,50.7,65.8,35.7"/>
<g>
	<path class="st2" d="M359.7,181.4c0,0,0-0.8,0-2.3c0-0.4,0-0.8,0.1-1.3c0-0.5,0.1-0.8,0.1-1v-0.2v-0.4c-0.1-0.5-0.2-0.7-0.4-0.7
		c-0.4,0-1.2,0.4-2.2,1.2c-1.1,0.8-2.2,1.7-3.4,2.8c-0.4,0.4-0.7,0.7-0.9,1.1c-0.2,0.3-0.4,0.5-0.5,0.5c-0.1,0.1-0.3,0.1-0.5,0.1
		c-0.3,0-0.7-0.3-1.1-0.7c-0.4-0.4-0.7-0.8-0.8-1.1c0-0.6,0.1-1.2,0.3-1.8c0.2-0.6,0.6-1.3,1-2.2c0.2-0.7,0.5-1.4,0.8-2
		c0.3-0.8,0.6-1.4,0.7-1.8s0.2-0.9,0.3-1.3c0,0,0,0,0,0c0-0.1,0-0.2,0.1-0.2c0.1-0.1,0.1-0.1,0.2-0.1c0-0.1,0.2-0.1,0.4-0.1
		c0.6,0,1.1,0.2,1.5,0.5s0.6,0.8,0.6,1.5c0,0.3-0.1,0.7-0.2,1c-0.1,0.3-0.4,0.8-0.7,1.5l-0.4,0.7c-0.1,0.1-0.2,0.3-0.3,0.6
		c-0.1,0.3-0.2,0.4-0.2,0.5c0.6-0.4,1.2-0.9,2-1.5c1.1-0.9,2-1.6,2.8-2.1c0.7-0.5,1.3-0.7,1.6-0.7c0.3,0,0.7,0.2,1.2,0.5
		c0.5,0.3,0.8,0.6,0.9,0.9c0,0.2,0,0.4-0.1,0.7c0,0.3-0.1,0.6-0.1,0.8l0,1c0,0.2,0,0.5,0,0.8c0,0.7,0,1.2-0.1,1.5c0,0,0,0.1,0.1,0.1
		c0,0,0,0.1,0,0.1l0,0.1c0,0.2,0.1,0.6,0.4,1.1c0.2,0.5,0.3,0.8,0.3,0.8c0,0.2-0.2,0.5-0.5,0.8c-0.3,0.3-0.6,0.5-0.9,0.5
		C360.5,181.4,359.7,181.4,359.7,181.4z"/>
	<path class="st2" d="M367.5,181.9c-0.2-0.1-0.4-0.3-0.7-0.5c-0.5-0.5-0.8-1-1-1.5s-0.3-1-0.3-1.3c0.1-0.2,0.1-0.3,0.1-0.5
		c0-0.2,0-0.3,0-0.3c-0.1-0.1-0.1-0.2-0.1-0.2c0,0,0-0.1,0.1-0.1s0.1-0.1,0.1-0.1c0.1,0,0.2-0.1,0.1-0.4c0-0.2,0-0.6,0.2-1.2
		s0.5-1.2,0.8-1.7c0.2-0.4,0.6-0.9,1.1-1.5c0.5-0.6,0.9-1.1,1.3-1.4c1.1-1,2.1-1.6,3-1.8c0.5-0.1,0.9-0.2,1.3-0.2
		c0.7,0,1.2,0.2,1.5,0.5c0.5,0.2,0.9,0.5,1.1,0.9c0.2,0.4,0.4,0.9,0.4,1.5c0,0.1,0,0.4,0,0.7c0,1.7-0.6,3.4-1.9,5.2
		c-0.5,0.7-1,1.3-1.6,1.8c-0.5,0.5-1.1,0.9-1.9,1.4c-0.4,0.3-0.8,0.5-1.3,0.5c-0.5,0.1-1.1,0.2-1.8,0.2
		C367.9,182,367.6,182,367.5,181.9z M372.5,176.8c0.2-0.4,0.5-1.1,0.8-2.1c0.1-0.2,0.2-0.6,0.2-1.2c0-0.5-0.1-0.8-0.2-0.9
		c-0.1-0.1-0.2-0.1-0.4-0.1c-0.2,0-0.5,0.2-1,0.5c-0.8,0.7-1.4,1.4-2,2.1s-0.9,1.6-1.1,2.5c0,0.1,0,0.2,0,0.4c0,0.8,0.3,1.1,0.8,1.1
		c0.5,0,1.2-0.4,2-1.1C372,177.5,372.3,177.2,372.5,176.8z"/>
	<path class="st2" d="M387.5,182c-0.6-0.3-1.1-0.7-1.5-1.2s-0.5-1-0.5-1.4c0-0.4,0.2-0.6,0.5-0.6c0.2,0,0.4,0.2,0.7,0.4
		c0.3,0.2,0.6,0.4,0.9,0.5c0.2,0.1,0.5,0.2,0.7,0.2c0.4,0,0.7-0.1,1-0.2c0.3-0.1,0.4-0.3,0.5-0.6c0-0.1,0-0.3-0.1-0.6
		c-0.1-0.3-0.2-0.6-0.3-0.8c-0.5-0.7-0.8-1.5-1-2.2c-0.2-0.7-0.3-1.5-0.3-2.5c0-0.5,0.4-1.1,1.1-1.9c0.8-0.7,1.6-1.4,2.6-1.9
		s1.8-0.9,2.5-0.9c1.2,0,2,0.1,2.2,0.3c0.3,0.2,0.6,0.7,0.9,1.2c0.3,0.6,0.4,1,0.4,1.4c0,0.2-0.1,0.4-0.2,0.6s-0.2,0.4-0.3,0.5
		l-0.3,0.5l-0.2,0.5c0,0.1-0.1,0.3-0.2,0.5c-0.1,0.2-0.2,0.4-0.3,0.4c-0.1,0-0.2,0.1-0.4,0c-0.4,0-0.7-0.2-1-0.5s-0.5-0.7-0.5-1.1
		c0-0.3,0.1-0.6,0.3-0.9c0.2-0.3,0.3-0.5,0.3-0.5c0-0.1-0.1-0.1-0.3-0.1c-0.3,0-0.7,0.1-1.4,0.4c-0.6,0.3-1.1,0.7-1.6,1.2
		c-0.5,0.5-0.7,1-0.7,1.6c0,0.3,0.1,0.7,0.2,1.1c0.1,0.4,0.3,0.8,0.4,1c0.2,0.2,0.4,0.7,0.8,1.6c0.3,0.9,0.5,1.6,0.5,2.1
		c0,0.8-0.3,1.4-0.9,1.8c-0.6,0.4-1.4,0.6-2.5,0.6C388.7,182.5,388.1,182.3,387.5,182z"/>
	<path class="st2" d="M395.4,189.6c-0.5-0.5-0.8-0.9-0.8-1.1c0-0.3,0.2-1.4,0.7-3.3c0.5-1.9,0.9-3.4,1.3-4.6c0-0.1,0.2-0.5,0.4-1.1
		c0.3-0.7,0.5-1.4,0.8-2.4c0.2-0.7,0.7-1.9,1.4-3.8l1-2.4c0.2-0.5,0.4-1.1,0.6-1.7c0.2-0.6,0.4-1,0.4-1.1c0.1-0.3,0.6-0.5,1.5-0.8
		c0,0,0.1,0,0.2,0c0.3,0,0.6,0.2,0.8,0.5c0.1,0.1,0.1,0.3,0.1,0.5c0,0.4-0.1,0.9-0.4,1.5l-0.2,0.7l1.2-0.3c1.6,0.1,2.5,0.2,2.6,0.2
		c0.5,0,0.8,0.1,1.1,0.3c0.2,0.2,0.4,0.4,0.6,0.7c0.4,0.4,0.6,0.7,0.7,1c0,0.1,0,0.2,0,0.4c0,0.8-0.3,1.7-0.9,2.7
		c-0.6,1-1.2,1.8-1.9,2.2c-0.2,0.1-0.4,0.2-0.6,0.3c-0.2,0.1-0.3,0.1-0.3,0.2c0,0.1-0.3,0.3-0.7,0.6c-0.5,0.3-1,0.5-1.5,0.8
		c-0.6,0.2-1.1,0.4-1.5,0.4c-0.2,0-0.5,0.1-0.8,0.1c-0.2,0-0.4,0-0.6-0.1c-0.3,0-0.4-0.1-0.5-0.1s-0.1,0-0.1,0.1
		c0,0-0.1,0.3-0.4,0.9c-0.3,0.6-0.6,1.6-1,3c-0.7,2-1.2,3.8-1.7,5.4c-0.2,0.8-0.4,1.2-0.4,1.2C396.3,190.4,395.9,190.1,395.4,189.6z
		 M401.4,177.1c0.4,0,0.8-0.1,1.4-0.3c0.6-0.2,1.1-0.5,1.6-0.8c0.5-0.3,0.7-0.6,0.8-0.9c0.1-0.1,0.3-0.3,0.5-0.6
		c0.2-0.3,0.4-0.5,0.5-0.6s0.1-0.3,0.1-0.4c0-0.1-0.1-0.2-0.2-0.3c-0.2-0.3-0.6-0.5-0.9-0.5c-0.5,0-1.3,0.3-2.3,0.8
		c-0.4,0.2-0.7,0.3-0.8,0.4s-0.3,0.4-0.4,0.7c-0.1,0.3-0.2,0.6-0.3,0.6c-0.4,0.9-0.5,1.4-0.5,1.6C401,177.1,401.1,177.1,401.4,177.1
		z"/>
	<path class="st2" d="M413.2,181.9c-0.3,0-0.6,0-0.8-0.1c-0.2-0.1-0.4-0.1-0.4-0.2c0-0.1,0-0.1,0-0.1c0,0-0.1,0-0.1,0
		c-0.1-0.1-0.2-0.2-0.5-0.4s-0.4-0.3-0.6-0.4c-0.3-0.4-0.4-0.8-0.4-1.3c0-0.4,0.1-1.1,0.4-2.1c0-0.9,0.3-1.9,1-3
		c0.6-1.1,1.4-2.1,2.2-3s1.7-1.6,2.4-2c0.3-0.3,0.8-0.5,1.4-0.5c0.5,0,0.9,0.1,1.2,0.3c0.3,0.2,0.7,0.6,1.1,1.1s0.8,1.1,1,1.6
		c0,0.2,0.1,0.4,0.2,0.6s0.1,0.6,0.1,1l-0.1,0.9c-0.3,0.9-0.4,1.8-0.4,2.5c0,0.3,0,0.6,0.1,0.8c0.1,0.2,0.2,0.3,0.4,0.3
		c0.1,0,0.2,0,0.4-0.1c0.1-0.1,0.3-0.1,0.5-0.1c0.3,0,0.5,0.1,0.7,0.3c0.2,0.2,0.3,0.4,0.3,0.7c0,0.2-0.1,0.4-0.2,0.6
		c-0.2,0.5-0.6,0.9-1.1,1.2c-0.6,0.4-1.1,0.5-1.5,0.5c-0.4,0-0.8-0.2-1.1-0.6c-0.3-0.4-0.6-0.9-0.8-1.6l-0.2-0.8l-1.2,1.1l-0.8,0.8
		c-0.4,0.4-0.6,0.6-0.6,0.6c-0.1,0.2-0.3,0.3-0.6,0.5c-0.3,0.2-0.7,0.3-1.3,0.6C413.6,181.9,413.4,181.9,413.2,181.9z M415.8,177.7
		c0.3-0.3,0.6-0.8,1.1-1.4c0.1-0.1,0.2-0.3,0.3-0.4c0.1-0.1,0.2-0.3,0.3-0.5c0.4-0.5,0.7-0.9,0.8-1.2s0.3-0.7,0.4-1
		c-0.1-0.3-0.2-0.6-0.4-0.8s-0.3-0.4-0.5-0.4c-0.6,0-1.5,0.7-2.6,2.2c-0.1,0.2-0.3,0.4-0.5,0.8c-0.2,0.4-0.4,0.7-0.5,0.8
		c-0.1,0.2-0.3,0.5-0.5,1.1c-0.2,0.6-0.3,1-0.3,1.2c0,0.5,0.1,0.7,0.4,0.7c0.2,0,0.5-0.1,0.8-0.3
		C415.2,178.3,415.5,178.1,415.8,177.7z"/>
	<path class="st2" d="M428.1,182.5c-0.9,0-1.7-0.3-2.5-0.9c-0.7-0.6-1.1-1.4-1.1-2.3l0-0.5c0-1.1,0.2-2.3,0.7-3.7
		c0.5-1.4,1.1-2.5,1.8-3.4c0.6-0.7,1-1.2,1.5-1.6c0.4-0.4,0.8-0.7,1.1-0.8c0.3-0.1,0.7-0.2,1.1-0.3c0.5-0.1,0.8-0.1,1-0.1
		c0.5,0.1,0.9,0.3,1.3,0.5c0.4,0.2,0.6,0.4,0.6,0.7l0.2,0.2c0.2,0,0.3,0.2,0.6,0.7c0.2,0.5,0.3,0.9,0.3,1.4c0,0.2,0,0.4-0.1,0.5
		c-0.1,0.4-0.3,0.8-0.5,1.3c-0.3,0.4-0.5,0.6-0.7,0.6c-0.2,0-0.4,0.1-0.4,0.2c0,0.1-0.1,0.2-0.4,0.2c-0.2,0-0.5-0.1-0.7-0.2
		c-0.2-0.1-0.4-0.2-0.4-0.4c0-0.1,0.1-0.6,0.3-1.4c0.1-0.3,0.1-0.6,0.1-0.8c0-0.4-0.1-0.6-0.4-0.6c-0.1,0-0.2,0-0.5,0.1
		c-0.6,0.3-1.1,0.7-1.4,1.1c-0.3,0.4-0.7,1-0.9,1.7c-0.3,0.7-0.6,1.8-0.9,3.1c-0.1,0.3-0.1,0.5-0.1,0.7c0,0.3,0,0.5,0.1,0.7
		s0.1,0.3,0.2,0.3c0.1,0,0.3,0.1,0.6,0.1c0.6,0,1-0.1,1.4-0.3c0.4-0.2,0.8-0.5,1.2-0.8s0.6-0.5,0.7-0.5c0,0,0.1-0.2,0.3-0.4
		c0.1-0.2,0.3-0.4,0.4-0.4c0.1-0.2,0.3-0.3,0.5-0.4c0.2,0,0.4-0.1,0.6-0.1c0.2,0,0.3,0,0.4,0c0.3,0.1,0.6,0.3,0.8,0.6
		s0.3,0.5,0.1,0.6c-0.1,0-0.1,0-0.1,0.1s0,0.1,0,0.1c0,0.1-0.1,0.4-0.5,0.9c-0.4,0.5-0.9,0.9-1.4,1.4c-0.5,0.4-0.8,0.7-1,0.7
		c-0.1,0-0.2,0-0.2,0s-0.1,0.1-0.1,0.2s-0.3,0.3-1,0.6c-0.7,0.3-1.2,0.5-1.7,0.6C428.5,182.5,428.3,182.5,428.1,182.5z"/>
	<path class="st2" d="M437.6,180.6c-0.3-0.6-0.5-1.4-0.5-2.4c0-0.2,0-0.6,0.1-1.2c0-0.2,0-0.4,0-0.6c0-0.4,0-0.7-0.1-0.9
		c-0.1-0.2-0.2-0.4-0.5-0.6c-0.1-0.1-0.2-0.2-0.5-0.4c-0.2-0.2-0.4-0.4-0.3-0.5v-0.1c0-0.2,0-0.3,0.1-0.5c0.1-0.2,0.2-0.3,0.2-0.4
		c0.1,0,0.2-0.1,0.4-0.2c0.2-0.1,0.4-0.1,0.5-0.1c0.1,0,0.2,0.1,0.4,0.2c0.2,0.1,0.3,0.2,0.3,0.3c0.1,0.3,0.5-0.2,1-1.3
		c0.3-0.5,0.7-0.9,1.3-1.4c0.5-0.5,1-0.8,1.5-1.1c0.2-0.1,0.5-0.2,1.1-0.3c0.6-0.1,1-0.2,1.3-0.2c0.4,0,0.8,0.1,1.3,0.4
		c0.5,0.3,0.9,0.6,1.2,0.9c0.5,0.3,0.7,1,0.7,1.9c0,0.6-0.1,1-0.3,1.5c-0.1,0.3-0.5,0.9-1.3,1.5s-1.4,1.1-1.9,1.3
		c-0.5,0.1-1,0.2-1.7,0.2s-1-0.1-1.3-0.2c-0.2-0.1-0.3-0.1-0.4,0.1s-0.2,0.5-0.3,1.1l0,0.3c0,0.2,0.1,0.5,0.2,0.7
		c0.2,0.3,0.3,0.5,0.4,0.6c0.1,0.1,0.3,0.2,0.6,0.2l0.3,0c0.2,0,0.5-0.1,0.8-0.4c0.3-0.2,0.6-0.5,1-0.9c0.4-0.4,0.6-0.6,0.7-0.7
		c0.1-0.2,0.4-0.3,0.9-0.3c0.2,0,0.5,0,0.8,0.1c0.2,0.2,0.3,0.4,0.3,0.7c0,0.4-0.2,0.9-0.5,1.6c-0.1,0.2-0.5,0.6-1,1.1
		c-0.6,0.5-1,0.9-1.4,1.1c-0.6,0.3-1.3,0.5-2,0.5c-0.6,0-1.1-0.1-1.8-0.3C438.5,181.7,438,181.2,437.6,180.6z M443,173.9
		c0.3-0.2,0.7-0.6,1.1-1.1c0.2-0.5,0.2-0.9,0.1-1c-0.1-0.1-0.3-0.2-0.5-0.2c-0.2,0-0.5,0.1-0.8,0.4c-0.2,0.1-0.5,0.3-0.9,0.6
		c-0.4,0.3-0.7,0.7-1,1c-0.3,0.3-0.3,0.5-0.2,0.6c0,0.1,0.1,0.1,0.3,0.2c0.3,0,0.5,0.1,0.7,0.1C442.3,174.2,442.7,174.1,443,173.9z"
		/>
</g>
<g>
	<g>
		<path class="st2" d="M176.3,50.5c-2.9,0-5.4-0.9-7.6-2.8c-2.2-1.8-3.3-4.2-3.3-7l-0.1-1.7c0-3.3,0.7-7.1,2.2-11.4
			c1.5-4.3,3.3-7.8,5.4-10.5c1.7-2,3.2-3.7,4.5-4.9s2.4-2.1,3.4-2.5c0.9-0.3,2.1-0.7,3.4-0.9c1.4-0.3,2.4-0.4,3.1-0.4
			c1.4,0.3,2.7,0.8,3.9,1.5c1.2,0.6,1.8,1.3,1.8,2.1l0.5,0.5c0.5,0,1.1,0.8,1.7,2.3c0.7,1.5,1,2.9,1,4.2c0,0.6-0.1,1.1-0.3,1.6
			c-0.3,1.3-0.8,2.6-1.6,3.9c-0.8,1.3-1.5,1.9-2,1.9c-0.8,0-1.1,0.2-1.1,0.6c0,0.3-0.4,0.5-1.3,0.5c-0.7,0-1.4-0.2-2.2-0.5
			c-0.8-0.3-1.2-0.7-1.4-1.2c0-0.3,0.3-1.7,0.8-4.2c0.2-1,0.3-1.9,0.3-2.6c0-1.3-0.4-1.9-1.3-1.9c-0.2,0-0.7,0.1-1.6,0.4
			c-1.8,1-3.3,2.1-4.3,3.4c-1.1,1.3-2,3-2.9,5.3c-0.8,2.2-1.8,5.5-2.9,9.7c-0.2,0.8-0.3,1.6-0.3,2.3c0,0.8,0.1,1.5,0.3,2
			s0.4,0.8,0.6,0.9c0.3,0.1,1,0.2,1.9,0.2c1.7,0,3.1-0.3,4.2-0.9c1.3-0.7,2.5-1.5,3.7-2.3c1.2-0.9,1.9-1.4,2.2-1.6
			c0.1-0.1,0.4-0.5,0.8-1.2c0.4-0.7,0.9-1.1,1.4-1.3c0.4-0.6,0.9-1,1.6-1.1c0.6-0.1,1.3-0.2,1.9-0.2c0.6,0,1,0,1.3,0
			c0.9,0.3,1.8,0.9,2.6,1.9c0.8,1,1,1.6,0.4,1.9c-0.2,0-0.3,0.1-0.4,0.2c-0.1,0.1-0.1,0.2-0.1,0.3c0.1,0.3-0.4,1.3-1.7,2.8
			c-1.3,1.5-2.6,2.9-4.2,4.3c-1.5,1.4-2.6,2-3.1,2c-0.3,0-0.5,0-0.7,0.1c-0.2,0.1-0.3,0.2-0.3,0.5c0,0.3-1.1,0.9-3.2,1.9
			c-2.1,1-3.8,1.7-5.2,1.9C177.5,50.4,176.8,50.5,176.3,50.5z"/>
	</g>
</g>
<g>
	<path class="st2" d="M322.1,47.4c-2.4-2.2-3.7-5.4-3.7-9.5c0-1.6,0.1-3.4,0.3-5.3c0.1-1.7,0.8-4,2-6.9c1.2-2.9,2.9-5.8,5-8.6
		c2.1-2.8,4.6-4.8,7.5-6.2c1.3-0.6,2.4-1.1,3.3-1.3c0.9-0.2,1.9-0.4,3.1-0.4c2.9,0,5.2,0.5,6.9,1.6c1.8,1,3,2.2,3.8,3.5
		c0.7,1.3,1.1,2.5,1.1,3.4v0.5v0.3c0,0.8-0.5,2.4-1.5,4.6c-1,2.2-2.5,4.3-4.6,6.3c-2.1,1.9-4.8,3-8.2,3.2c-1.7,0-3.3-0.2-4.8-0.5
		s-2.6-0.5-3-0.5c-1,0-1.7,0.4-2,1.1c-0.3,0.8-0.4,2.1-0.4,3.9c0.2,1.9,0.7,3.3,1.6,4.1c0.9,0.8,2.1,1.1,3.8,1.1
		c0.8,0,1.8-0.2,2.9-0.7c1.1-0.6,2.4-1.4,4-2.6c0.8-0.7,1.5-1.2,2-1.5c0.5-0.3,1.1-0.4,1.8-0.4c0.6,0,1.4,0.4,2.2,1.3
		s1.3,1.6,1.4,2.4c-0.1,0.8-0.9,2.1-2.3,3.8c-1.4,1.7-3.2,3.2-5.4,4.5c-2.2,1.3-4.6,2-7.2,2C327.7,50.8,324.5,49.7,322.1,47.4z
		 M338.1,25.2c0.7-0.3,1.8-1.2,3.2-2.7c1.4-1.4,2.2-2.4,2.2-3c0-0.7-0.3-1.3-0.9-1.7c-0.6-0.5-1.4-0.7-2.5-0.9H339
		c-0.9,0-2.2,0.7-3.9,2.2c-1.7,1.5-3.2,3.2-4.4,5.2c0.1,0.3,0.6,0.6,1.6,0.9c1,0.2,2,0.4,3.1,0.4C336.7,25.6,337.6,25.5,338.1,25.2z
		"/>
</g>
<line class="st1" x1="90" y1="75.2" x2="139.8" y2="147.1"/>
<path class="st1" d="M141.7,75.2c0,0-42.3,47.9-47,68.6"/>
<line class="st1" x1="439" y1="142.9" x2="389.2" y2="71"/>
<path class="st1" d="M387.4,142.9c0,0,42.3-47.9,47-68.6"/>
<path class="st1" d="M158.4,38.3c0,0-27.1,5.1-33.3,31.6"/>
<path class="st1" d="M370.4,34.8c0,0,24.4,5.2,34.8,31.9"/>
</svg>
