<?xml version="1.0" encoding="utf-8"?>
<!-- Generator: Adobe Illustrator 22.0.1, SVG Export Plug-In . SVG Version: 6.00 Build 0)  -->
<svg version="1.1" id="Layer_1" xmlns="http://www.w3.org/2000/svg" xmlns:xlink="http://www.w3.org/1999/xlink" x="0px" y="0px"
	 viewBox="0 0 479.2 80.9" style="enable-background:new 0 0 479.2 80.9;" xml:space="preserve">
<style type="text/css">
	.st0{enable-background:new    ;}
	.st1{fill:#F26B5A;}
	.st2{fill:#3D88D8;}
</style>
<g class="st0">
	<path class="st1" d="M15,18.4c0-1.3,0-2.3,0.1-3s0.4-1.4,0.8-2.3c0.8-1.6,3-2.3,6.7-2.3c4,0,6.4,1.1,7.2,3.2c0.3,1,0.4,2.5,0.4,4.5
		v47.9c0,1.4,0,2.4-0.1,3s-0.4,1.4-0.8,2.2c-0.8,1.6-3,2.3-6.7,2.3c-4,0-6.4-1.1-7.1-3.3c-0.3-0.9-0.5-2.4-0.5-4.4
		C15,66.2,15,18.4,15,18.4z"/>
	<path class="st1" d="M62.4,28.5c5.7,0,10.5,2.2,14.4,6.6c3.8,4.4,5.7,9.8,5.7,16.1v15.2c0,1.3,0,2.3-0.1,3s-0.3,1.4-0.7,2.2
		c-0.8,1.6-3,2.3-6.7,2.3c-4.1,0-6.4-1.1-7.1-3.2c-0.3-1-0.5-2.4-0.5-4.4V51.1c0-2.4-0.7-4.2-2-5.5c-1.4-1.3-3.2-2-5.4-2
		c-2.3,0-4.1,0.7-5.5,2.1c-1.4,1.4-2.1,3.2-2.1,5.4v15.3c0,1.3,0,2.3-0.1,3s-0.4,1.4-0.8,2.2c-0.7,1.6-3,2.3-6.6,2.3
		s-5.8-0.8-6.6-2.3c-0.4-0.9-0.6-1.6-0.7-2.3c-0.1-0.7-0.1-1.7-0.1-3V35.8c0-1.3,0-2.2,0.1-2.9s0.4-1.4,0.8-2.2
		c0.8-1.4,3-2.2,6.6-2.2c3.5,0,5.7,0.7,6.5,2c0.6,1,0.9,2.2,0.9,3.5c0.2-0.4,0.7-1,1.6-1.7c0.8-0.7,1.6-1.3,2.3-1.8
		C57.9,29.2,60.1,28.5,62.4,28.5z"/>
</g>
<g class="st0">
	<path class="st2" d="M103.6,51.2c0,2.4,0.8,4.3,2.4,5.7s3.3,2,5.1,2s3.5-0.5,5.1-1.6s2.9-1.6,3.8-1.6c1.7,0,3.8,1.5,6.3,4.6
		c1.3,1.7,2,3.2,2,4.5c0,2.2-1.6,4.2-4.7,6.1c-3.3,2.3-7.3,3.4-12.1,3.4c-5.3,0-10.5-1.9-15.4-5.8c-2.4-1.8-4.3-4.3-5.8-7.4
		s-2.2-6.5-2.2-10.2s0.7-7.1,2.2-10.1c1.5-3,3.4-5.4,5.8-7.3c4.8-3.8,9.9-5.7,15.3-5.7c2.2,0,4.3,0.3,6.4,0.9s3.6,1.2,4.6,1.8
		l1.4,0.9c1,0.7,1.8,1.2,2.4,1.6c1.5,1.2,2.2,2.5,2.2,3.9s-0.6,3.1-1.8,5c-2.1,3.2-4.1,4.7-5.9,4.7c-1.1,0-2.6-0.6-4.7-1.9
		c-1-1-2.5-1.5-4.4-1.5s-3.7,0.7-5.4,2.1C104.5,46.9,103.6,48.8,103.6,51.2z"/>
	<path class="st2" d="M139.9,34.2c4.8-4.5,10.3-6.7,16.6-6.7s11.7,2.2,16.5,6.7s7.2,10.1,7.2,17c0,4.8-1.2,9-3.7,12.7
		c-2.5,3.7-5.5,6.4-9,8.2c-3.5,1.8-7.2,2.6-11,2.6s-7.5-0.9-11-2.8c-3.6-1.9-6.6-4.6-9-8.3c-2.4-3.6-3.7-7.8-3.7-12.4
		C132.7,44.4,135.1,38.7,139.9,34.2z M150.7,57.5c1.8,1.4,3.7,2.1,5.6,2.1s3.8-0.7,5.7-2.2c1.9-1.4,2.8-3.6,2.8-6.4
		c0-2.8-0.9-4.9-2.7-6.3c-1.8-1.4-3.7-2.1-5.8-2.1s-4,0.7-5.8,2.2c-1.8,1.4-2.7,3.5-2.7,6.3C147.9,53.9,148.9,56,150.7,57.5z"/>
	<path class="st2" d="M210.9,28.7c5.7,0,10.5,2.2,14.4,6.6c3.8,4.4,5.7,9.7,5.7,16v15.2c0,1.3,0,2.3-0.1,3s-0.4,1.4-0.8,2.3
		c-0.7,1.5-3,2.2-6.6,2.2c-3.5,0-5.7-0.7-6.6-2.2c-0.5-0.9-0.7-1.6-0.8-2.3c-0.1-0.7-0.1-1.7-0.1-3.1V51.2c0-2.4-0.7-4.2-2-5.5
		s-3-2-5-2s-3.8,0.6-5.4,1.9c-1.6,1.2-2.4,2.6-2.7,4.2v16.7c0,1.3,0,2.3-0.1,3s-0.4,1.4-0.8,2.3c-0.7,1.5-3,2.2-6.6,2.2
		s-5.8-0.8-6.6-2.3c-0.4-0.9-0.6-1.6-0.7-2.2c-0.1-0.6-0.1-1.6-0.1-3V14.8c0-1.3,0-2.3,0.1-3s0.3-1.4,0.7-2.2c0.8-1.6,3-2.3,6.7-2.3
		c3.6,0,5.8,0.8,6.6,2.3c0.5,0.9,0.7,1.6,0.8,2.3s0.1,1.7,0.1,3V34C203.7,30.5,207,28.7,210.9,28.7z"/>
	<path class="st2" d="M281.7,45.8c0,3.5-0.9,6.2-2.6,7.8c-1.8,1.7-3.7,2.5-5.8,2.5h-20.4c0,1.6,0.9,3,2.8,4.1s3.8,1.6,5.7,1.6
		c3.3,0,5.9-0.3,7.8-1l0.9-0.3c1.4-0.6,2.5-0.9,3.4-0.9c1.8,0,3.4,1.3,4.7,3.9c0.7,1.6,1.1,2.9,1.1,4c0,5.1-6.1,7.7-18.4,7.7
		c-4.3,0-8-0.7-11.3-2.2s-5.9-3.4-7.7-5.8c-3.6-4.7-5.4-9.9-5.4-15.6c0-7.2,2.3-13,7-17.4c4.7-4.3,10.5-6.5,17.5-6.5
		c8,0,13.9,2.8,17.6,8.4C280.7,39,281.7,42.3,281.7,45.8z M263.5,48.4c2.2,0,3.3-0.9,3.3-2.8c0-1.3-0.5-2.4-1.5-3.2
		s-2.4-1.2-4.3-1.2s-3.7,0.8-5.6,2.3c-1.8,1.5-2.8,3.1-2.8,4.9H263.5z"/>
	<path class="st2" d="M318.1,29c1.1,0.3,2,0.9,2.7,1.8c0.7,0.8,1.1,2.2,1.1,4s-0.5,3.9-1.6,6c-1.1,2.2-2.7,3.3-4.7,3.3
		c-1,0-2-0.2-3-0.7s-2.2-0.7-3.8-0.7s-3,0.5-4.4,1.6s-2,2.4-2,4v18.1c0,1.3,0,2.3-0.1,3s-0.4,1.4-0.8,2.3c-0.9,1.5-3.1,2.2-6.7,2.2
		c-2.8,0-4.7-0.5-5.9-1.5c-0.9-0.8-1.4-2-1.6-3.7c0-0.6,0-1.4,0-2.5V36c0-1.3,0-2.3,0.1-3s0.3-1.4,0.7-2.2c0.8-1.6,3-2.3,6.7-2.3
		c3.4,0,5.6,0.7,6.5,2c0.6,0.9,0.9,1.9,0.9,2.8c0.3-0.4,0.7-0.9,1.2-1.5c0.5-0.6,1.7-1.3,3.5-2.3s3.3-1.5,4.7-1.5
		c1.3,0,2.5,0.1,3.4,0.2C316,28.5,317,28.7,318.1,29z"/>
	<path class="st2" d="M367.9,45.8c0,3.5-0.9,6.2-2.6,7.8c-1.8,1.7-3.7,2.5-5.8,2.5H339c0,1.6,0.9,3,2.8,4.1s3.8,1.6,5.7,1.6
		c3.3,0,5.9-0.3,7.8-1l0.9-0.3c1.4-0.6,2.5-0.9,3.4-0.9c1.8,0,3.4,1.3,4.7,3.9c0.7,1.6,1.1,2.9,1.1,4c0,5.1-6.1,7.7-18.4,7.7
		c-4.3,0-8-0.7-11.3-2.2s-5.9-3.4-7.7-5.8c-3.6-4.7-5.4-9.9-5.4-15.6c0-7.2,2.3-13,7-17.4c4.7-4.3,10.5-6.5,17.5-6.5
		c8,0,13.9,2.8,17.6,8.4C366.9,39,367.9,42.3,367.9,45.8z M349.7,48.4c2.2,0,3.3-0.9,3.3-2.8c0-1.3-0.5-2.4-1.5-3.2
		s-2.4-1.2-4.3-1.2s-3.7,0.8-5.6,2.3c-1.8,1.5-2.8,3.1-2.8,4.9H349.7z"/>
	<path class="st2" d="M398.7,28.5c5.7,0,10.5,2.2,14.4,6.6c3.8,4.4,5.7,9.8,5.7,16.1v15.2c0,1.3,0,2.3-0.1,3s-0.3,1.4-0.7,2.2
		c-0.8,1.6-3,2.3-6.7,2.3c-4.1,0-6.4-1.1-7.1-3.2c-0.3-1-0.5-2.4-0.5-4.4V51.1c0-2.4-0.7-4.2-2-5.5c-1.4-1.3-3.2-2-5.4-2
		s-4.1,0.7-5.5,2.1c-1.4,1.4-2.1,3.2-2.1,5.4v15.3c0,1.3,0,2.3-0.1,3s-0.4,1.4-0.8,2.2c-0.7,1.6-3,2.3-6.6,2.3s-5.8-0.8-6.6-2.3
		c-0.4-0.9-0.6-1.6-0.7-2.3c-0.1-0.7-0.1-1.7-0.1-3V35.8c0-1.3,0-2.2,0.1-2.9s0.4-1.4,0.8-2.2c0.8-1.4,3-2.2,6.6-2.2
		c3.5,0,5.7,0.7,6.5,2c0.6,1,0.9,2.2,0.9,3.5c0.2-0.4,0.7-1,1.6-1.7c0.8-0.7,1.6-1.3,2.3-1.8C394.2,29.2,396.4,28.5,398.7,28.5z"/>
	<path class="st2" d="M451.2,43.8l-5.6-0.3v11.9c0,1.6,0.2,2.7,0.7,3.4s1.4,1,2.8,1c1.3,0,2.4,0,3.1,0.1s1.5,0.4,2.3,0.8
		c1.3,0.7,2,2.7,2,5.8c0,3.6-0.8,5.8-2.4,6.6c-0.9,0.4-1.6,0.6-2.3,0.7c-0.7,0.1-1.6,0.1-2.9,0.1c-6,0-10.5-1.3-13.6-4.1
		c-3.1-2.7-4.7-7.3-4.7-13.7V43.4c-1.1,0.2-2.3,0.3-3.5,0.3c-1.3,0-2.3-0.5-3.1-1.5c-0.8-1-1.3-2.6-1.3-5s0.1-4.1,0.4-5.1
		c0.3-1.1,0.7-1.8,1.2-2.3c0.9-0.7,2.1-1.1,3.4-1.1l2.8,0.3v-8.9c0-1.3,0-2.3,0.1-2.9s0.4-1.3,0.8-2.1c0.7-1.4,3-2.2,6.6-2.2
		c3.9,0,6.2,1.1,7,3.2c0.3,0.9,0.4,2.4,0.4,4.4V29c2.5-0.2,4.4-0.3,5.7-0.3s2.3,0,2.9,0.1c0.7,0.1,1.4,0.4,2.3,0.8
		c1.5,0.7,2.2,3,2.2,6.6c0,3.6-0.8,5.8-2.3,6.6c-0.9,0.4-1.6,0.6-2.3,0.7C453.5,43.7,452.6,43.8,451.2,43.8z"/>
</g>
</svg>
