<?xml version="1.0" standalone="no"?>
<!DOCTYPE svg PUBLIC "-//W3C//DTD SVG 20010904//EN"
 "http://www.w3.org/TR/2001/REC-SVG-20010904/DTD/svg10.dtd">
<svg version="1.0" xmlns="http://www.w3.org/2000/svg"
 width="400.000000pt" height="400.000000pt" viewBox="0 0 400.000000 400.000000"
 preserveAspectRatio="xMidYMid meet">
<metadata>
Created by potrace 1.11, written by Peter Selinger 2001-2013
</metadata>
<g transform="translate(0.000000,400.000000) scale(0.100000,-0.100000)"
fill="#000000" stroke="none">
<path d="M1840 3984 c-14 -2 -65 -9 -115 -15 -344 -43 -708 -204 -990 -441
-365 -306 -597 -716 -682 -1203 -24 -139 -24 -471 0 -610 85 -487 317 -897
682 -1203 275 -230 591 -375 960 -439 139 -24 471 -24 610 0 369 64 685 209
960 439 365 306 597 716 682 1203 24 139 24 471 0 610 -149 859 -785 1497
-1637 1640 -90 15 -416 29 -470 19z m825 -738 c161 -51 351 -192 451 -332 100
-139 140 -294 131 -494 -7 -147 -16 -176 -140 -466 -143 -337 -177 -466 -177
-683 l0 -107 -382 -53 c-211 -29 -395 -55 -410 -58 l-28 -5 0 151 c0 83 -3
151 -7 151 -5 0 -32 -9 -61 -20 -63 -24 -151 -26 -193 -4 -48 24 -69 84 -67
185 1 61 -3 93 -15 116 -16 30 -55 67 -80 76 -35 12 97 96 153 97 18 1 -1 14
-67 48 -125 66 -123 64 -123 136 0 59 -2 62 -35 84 -43 27 -60 61 -51 98 4 15
39 59 78 97 127 127 142 191 108 468 -15 119 -21 201 -16 231 7 44 12 51 69
92 139 98 303 171 467 207 121 27 285 21 395 -15z m-1621 -842 c83 -37 179
-79 214 -95 35 -16 65 -29 67 -29 13 0 135 -62 135 -69 0 -11 -49 -121 -53
-121 -5 0 -408 175 -485 211 -35 16 -67 29 -71 29 -4 0 -12 5 -18 11 -12 12
33 129 50 129 5 0 78 -30 161 -66z m416 -549 l0 -75 -465 0 -465 0 0 75 0 75
465 0 465 0 0 -75z m1 -280 c11 -27 18 -56 17 -63 -2 -8 -39 -27 -83 -44 -207
-79 -462 -179 -479 -189 -10 -6 -22 -7 -26 -2 -10 12 -53 123 -49 127 4 2 188
75 484 190 50 20 96 34 104 33 7 -1 22 -24 32 -52z"/>
</g>
</svg>
