<?xml version="1.0" standalone="no"?>
<!DOCTYPE svg PUBLIC "-//W3C//DTD SVG 20010904//EN"
 "http://www.w3.org/TR/2001/REC-SVG-20010904/DTD/svg10.dtd">
<svg version="1.0" xmlns="http://www.w3.org/2000/svg"
 width="400.000000pt" height="400.000000pt" viewBox="0 0 400.000000 400.000000"
 preserveAspectRatio="xMidYMid meet">
<metadata>
Created by potrace 1.11, written by Peter Selinger 2001-2013
</metadata>
<g transform="translate(0.000000,400.000000) scale(0.100000,-0.100000)"
fill="#000000" stroke="none">
<path d="M1840 3984 c-14 -2 -65 -9 -115 -15 -344 -43 -708 -204 -990 -441
-365 -306 -597 -716 -682 -1203 -24 -139 -24 -471 0 -610 85 -487 317 -897
682 -1203 275 -230 591 -375 960 -439 139 -24 471 -24 610 0 369 64 685 209
960 439 365 306 597 716 682 1203 24 139 24 471 0 610 -149 859 -785 1497
-1637 1640 -90 15 -416 29 -470 19z m-610 -725 c52 -13 97 -44 117 -81 17 -31
18 -94 21 -1078 l2 -1045 -22 -45 c-13 -25 -38 -55 -56 -67 -89 -59 -326 -57
-419 4 -13 9 -34 34 -46 57 l-22 41 0 1045 0 1045 24 41 c29 52 83 83 163 94
68 9 182 4 238 -11z m872 -677 c50 -25 77 -66 85 -131 l4 -36 60 56 c33 32 93
74 136 95 71 37 82 39 182 42 74 3 127 -1 176 -12 276 -64 503 -317 572 -636
16 -74 18 -136 18 -490 l0 -405 -25 -50 c-20 -40 -35 -55 -75 -75 -46 -23 -61
-25 -185 -25 -125 0 -139 2 -185 25 -40 20 -55 36 -75 75 l-25 50 -5 400 c-5
388 -6 401 -27 441 -51 96 -136 138 -265 132 -120 -5 -190 -47 -241 -142 -21
-40 -22 -55 -27 -436 l-5 -395 -25 -50 c-20 -40 -35 -55 -75 -75 -46 -23 -61
-25 -185 -25 -122 0 -140 2 -183 24 -34 16 -54 35 -70 65 l-22 41 -3 704 -3
703 25 53 c38 84 96 106 276 102 107 -2 132 -5 172 -25z"/>
</g>
</svg>
